<svg width="512" height="512" viewBox="0 0 512 512" fill="none" xmlns="http://www.w3.org/2000/svg">
  <!-- Outer Circle -->
  <circle cx="256" cy="256" r="220" fill="none" stroke="#FFFFFF" stroke-width="14"/>
  <circle cx="256" cy="256" r="208" fill="none" stroke="#D4A64A" stroke-width="4"/>

  <!-- Elevator -->
  <rect x="170" y="120" width="170" height="220" rx="10" fill="#111111" stroke="#FFFFFF" stroke-width="6"/>

  <!-- Elevator Doors -->
  <rect x="188" y="150" width="68" height="170" fill="#F4F4F4"/>
  <rect x="256" y="150" width="68" height="170" fill="#E5E5E5"/>

  <!-- Top Indicator -->
  <rect x="215" y="100" width="80" height="28" rx="6" fill="#111111" stroke="#D4A64A" stroke-width="4"/>
  <path d="M240 114L256 126L272 114" stroke="#D4A64A" stroke-width="4" stroke-linecap="round" stroke-linejoin="round"/>

  <!-- Running Person -->
  <circle cx="185" cy="250" r="18" fill="#D4A64A" stroke="#FFFFFF" stroke-width="5"/>

  <path d="M175 270L150 315" stroke="#D4A64A" stroke-width="16" stroke-linecap="round"/>
  <path d="M175 275L210 285" stroke="#D4A64A" stroke-width="16" stroke-linecap="round"/>
  <path d="M150 315L130 365" stroke="#D4A64A" stroke-width="16" stroke-linecap="round"/>
  <path d="M210 285L240 265" stroke="#D4A64A" stroke-width="16" stroke-linecap="round"/>
  <path d="M165 290L130 300" stroke="#D4A64A" stroke-width="16" stroke-linecap="round"/>

  <!-- Alarm -->
  <rect x="90" y="190" width="60" height="90" rx="10" fill="#111111" stroke="#FFFFFF" stroke-width="5"/>
  <path d="M120 210C110 220 110 240 120 250" stroke="#D4A64A" stroke-width="5" stroke-linecap="round"/>
  <path d="M80 210C65 225 65 245 80 260" stroke="#D4A64A" stroke-width="5" stroke-linecap="round"/>

  <path d="M120 220C130 220 138 228 138 238V248H102V238C102 228 110 220 120 220Z" fill="#D4A64A"/>
  <circle cx="120" cy="255" r="6" fill="#D4A64A"/>

  <!-- Shield -->
  <path d="M390 180L430 195V235C430 270 405 295 390 305C375 295 350 270 350 235V195L390 180Z"
        fill="#111111"
        stroke="#FFFFFF"
        stroke-width="5"/>

  <path d="M372 240L386 254L410 225"
        stroke="#D4A64A"
        stroke-width="10"
        stroke-linecap="round"
        stroke-linejoin="round"/>

  <!-- Battery -->
  <rect x="340" y="285" width="90" height="90" rx="8" fill="#111111" stroke="#FFFFFF" stroke-width="5"/>
  <rect x="360" y="270" width="18" height="12" rx="2" fill="#111111"/>
  <rect x="392" y="270" width="18" height="12" rx="2" fill="#111111"/>

  <path d="M390 305L370 345H390L375 370"
        stroke="#D4A64A"
        stroke-width="10"
        stroke-linecap="round"
        stroke-linejoin="round"/>

</svg>